<?xml version="1.0" encoding="UTF-8"?>
<svg version="1.1" xmlns="http://www.w3.org/2000/svg" width="668" height="147">
<path d="M0 0 C0.33 0 0.66 0 1 0 C1.00879936 1.02784859 1.00879936 1.02784859 1.01777649 2.07646179 C1.07611926 8.5918769 1.14842593 15.1069782 1.23571491 21.62207317 C1.28009866 24.97014938 1.31787756 28.31798937 1.34643555 31.66625977 C1.38029868 35.53170044 1.43263018 39.39653745 1.48828125 43.26171875 C1.49467117 44.44142746 1.5010611 45.62113617 1.50764465 46.83659363 C1.7808957 62.57664655 5.70475806 77.52419468 17 89 C28.85724712 98.84135638 42.43261399 104.187343 58 103 C70.12648695 101.06631695 80.48087465 96.26682777 89.0625 87.44140625 C91 86 91 86 92.90527344 86.23974609 C95.23366312 87.084805 96.59805935 88.09088554 98.453125 89.72265625 C99.071875 90.26083984 99.690625 90.79902344 100.328125 91.35351562 C100.96234375 91.91748047 101.5965625 92.48144531 102.25 93.0625 C102.8996875 93.63033203 103.549375 94.19816406 104.21875 94.78320312 C105.81799717 96.1825444 107.40974119 97.59045241 109 99 C103.69926925 110.24130607 90.17403061 117.48874811 78.828125 121.57421875 C58.66286147 128.30061215 38.23371383 127.5219091 19 118 C1.05660618 108.80032275 -11.59662698 93.46912675 -17.96484375 74.5078125 C-23.53762379 55.62344845 -21.95782718 35.60176823 -13 18 C-9.28593678 11.45037563 -5.1384025 5.50543125 0 0 Z " fill="#49BCE2" transform="translate(21,21)"/>
<path d="M0 0 C7.46249837 5.04474189 11.93889808 11.36458155 14.60546875 19.94921875 C16.28244088 28.6661531 15.24415871 37.20576751 11 45 C5.5263391 52.62441174 -0.57235473 58.17422363 -10 60 C-18.71533507 60.61890039 -26.4178946 60.79653819 -34 56 C-34.70769531 55.56429687 -35.41539063 55.12859375 -36.14453125 54.6796875 C-43.04465735 49.99425864 -46.79966405 44.00034431 -49 36 C-50.0156633 24.60331297 -49.10965574 15.84431144 -41.75 6.75 C-30.71514263 -5.11188094 -14.35217852 -7.7213848 0 0 Z M-23 9 C-23 13.29 -23 17.58 -23 22 C-27.62 22 -32.24 22 -37 22 C-37 25.96 -37 29.92 -37 34 C-32.38 34 -27.76 34 -23 34 C-23 38.62 -23 43.24 -23 48 C-19.04 48 -15.08 48 -11 48 C-11 43.38 -11 38.76 -11 34 C-6.71 34 -2.42 34 2 34 C2 30.04 2 26.08 2 22 C-2.29 22 -6.58 22 -11 22 C-11 17.71 -11 13.42 -11 9 C-14.96 9 -18.92 9 -23 9 Z " fill="#49BCE2" transform="translate(91,45)"/>
<path d="M0 0 C8.6625 -0.12375 8.6625 -0.12375 17.5 -0.25 C20.20993164 -0.30462402 20.20993164 -0.30462402 22.97460938 -0.36035156 C24.43097755 -0.37205057 25.88735897 -0.38223952 27.34375 -0.390625 C28.44831543 -0.4213208 28.44831543 -0.4213208 29.57519531 -0.45263672 C36.31921353 -0.45710296 41.53096287 1.65758016 46.4375 6.3125 C48.41666725 9.71666766 48.93202456 12.05742437 49 16 C47.57902087 20.19188843 45.84724682 23.61042046 43 27 C43.78375 27.5775 44.5675 28.155 45.375 28.75 C48.68199243 31.58456494 49.77462167 33.4635266 50.40625 37.76953125 C50.59699702 43.96086168 50.35525342 47.94551502 46.09375 52.59765625 C40.12931537 56.59249213 34.31719807 57.4383125 27.34375 57.29296875 C26.64411133 57.28994751 25.94447266 57.28692627 25.22363281 57.28381348 C22.64893511 57.26830157 20.07445026 57.22641985 17.5 57.1875 C11.725 57.125625 5.95 57.06375 0 57 C0 38.19 0 19.38 0 0 Z M15 12 C15 15.3 15 18.6 15 22 C17.27024968 22.08097324 19.54132075 22.13917704 21.8125 22.1875 C23.70935547 22.23970703 23.70935547 22.23970703 25.64453125 22.29296875 C28.9311364 22.28838189 28.9311364 22.28838189 30.92578125 20.6484375 C32.45661395 18.29930514 32.42139094 16.73904111 32 14 C28.2632157 11.50881047 26.25548181 11.7934774 21.8125 11.875 C20.54019531 11.89304687 19.26789063 11.91109375 17.95703125 11.9296875 C16.98121094 11.95289063 16.00539062 11.97609375 15 12 Z M15 34 C15 37.63 15 41.26 15 45 C17.0622048 45.054348 19.12482816 45.09294961 21.1875 45.125 C22.33605469 45.14820313 23.48460937 45.17140625 24.66796875 45.1953125 C27.96224481 45.00221308 30.12671238 44.60566073 33 43 C33.89830839 39.94727535 33.89830839 39.94727535 34 37 C31.38521048 34.43238452 30.05471424 34.0043655 26.328125 33.70703125 C24.96843965 33.72683249 23.6089066 33.76240798 22.25 33.8125 C21.55261719 33.82603516 20.85523438 33.83957031 20.13671875 33.85351562 C18.42414459 33.8887055 16.71197059 33.94250845 15 34 Z " fill="#FFC10E" transform="translate(147,44)"/>
<path d="M0 0 C2.4375 1.5625 2.4375 1.5625 3.4375 2.5625 C3.7675 1.2425 4.0975 -0.0775 4.4375 -1.4375 C9.3875 -1.4375 14.3375 -1.4375 19.4375 -1.4375 C19.51195886 4.82468093 19.56624818 11.08660102 19.60229492 17.34912109 C19.61733076 19.47709648 19.63776483 21.60504114 19.66381836 23.73291016 C19.70043089 26.80118417 19.71727881 29.86904649 19.73046875 32.9375 C19.74595261 33.88052979 19.76143646 34.82355957 19.77738953 35.79516602 C19.77904688 42.38039976 19.07744393 48.25138389 14.82421875 53.5859375 C14.26347656 54.03195313 13.70273437 54.47796875 13.125 54.9375 C12.57199219 55.39898437 12.01898438 55.86046875 11.44921875 56.3359375 C6.06749989 59.61721851 0.75163506 59.94900662 -5.375 59.9375 C-6.17164063 59.93733887 -6.96828125 59.93717773 -7.7890625 59.93701172 C-14.73414213 59.80203165 -20.51583888 58.60916112 -25.5625 53.5625 C-23.0875 48.6125 -23.0875 48.6125 -20.5625 43.5625 C-19.098125 44.0575 -17.63375 44.5525 -16.125 45.0625 C-10.36988866 46.77678848 -4.7096854 47.97873343 0.9375 45.4375 C2.95415615 42.91667981 3.15577807 40.73187172 3.4375 37.5625 C2.839375 38.036875 2.24125 38.51125 1.625 39 C-2.49556967 41.94326405 -6.66778897 42.03448999 -11.5625 41.5625 C-16.62462031 40.46446655 -20.37485665 38.66066814 -23.53125 34.36328125 C-27.76092555 26.97737054 -28.47701134 19.80484428 -26.5625 11.5625 C-24.78648549 5.96976201 -21.39485932 2.74834979 -16.5625 -0.4375 C-10.99433863 -2.29355379 -5.43090225 -2.1914167 0 0 Z M-11.5625 14.5625 C-13.09464888 17.62679776 -12.79188548 20.1790642 -12.5625 23.5625 C-10.81521222 27.29053465 -10.81521222 27.29053465 -7.5625 29.5625 C-4.68943772 30.06345023 -4.68943772 30.06345023 -1.5625 29.5625 C1.31436568 27.32493781 3.02007714 25.5538793 4.4375 22.1875 C4.4375 18.42362694 3.18020569 15.86119292 1.4375 12.5625 C-3.84258911 9.04244059 -7.63934792 9.62223442 -11.5625 14.5625 Z " fill="#FFC10E" transform="translate(459.5625,57.4375)"/>
<path d="M0 0 C2.20691283 1.6919665 4.34313264 3.44193972 6.46875 5.234375 C7.35046875 5.91693359 7.35046875 5.91693359 8.25 6.61328125 C11.52119183 9.17090428 13.43295784 11.65090459 15.46875 15.234375 C10.0176403 20.26869965 4.62766648 25.08380085 -1.53125 29.234375 C-1.90894531 28.81027344 -2.28664063 28.38617188 -2.67578125 27.94921875 C-12.52462878 17.45454515 -24.47671562 11.27427555 -38.89770508 10.76416016 C-50.58030163 10.63203104 -60.27703986 12.46560334 -70.0078125 19.28125 C-71.53125 20.234375 -71.53125 20.234375 -73.53125 20.234375 C-73.67614234 16.13057802 -73.76518542 12.02743533 -73.84375 7.921875 C-73.88564453 6.75462891 -73.92753906 5.58738281 -73.97070312 4.38476562 C-73.98681641 3.26650391 -74.00292969 2.14824219 -74.01953125 0.99609375 C-74.04571533 -0.03555908 -74.07189941 -1.06721191 -74.09887695 -2.13012695 C-73.53125 -4.765625 -73.53125 -4.765625 -71.16772461 -6.55273438 C-48.8265305 -16.83063532 -20.11648589 -14.03186979 0 0 Z " fill="#49BCE2" transform="translate(115.53125,11.765625)"/>
<path d="M0 0 C4.95 0 9.9 0 15 0 C15.33 9.57 15.66 19.14 16 29 C18.4440625 25.7825 18.4440625 25.7825 20.9375 22.5 C24.33514488 18.45119265 27.17274859 15.70771736 32.58203125 15.13671875 C36.77050653 15.04590223 40.85422602 15.42528963 45 16 C43.52778565 21.02230086 40.5510349 23.80278222 36.875 27.3125 C36.31167969 27.86228516 35.74835938 28.41207031 35.16796875 28.97851562 C33.78537942 30.32595438 32.39359084 31.66394273 31 33 C32.36697159 36.66338499 34.02662167 39.91580646 36.0390625 43.265625 C36.61914062 44.23757812 37.19921875 45.20953125 37.796875 46.2109375 C38.40015625 47.21382812 39.0034375 48.21671875 39.625 49.25 C40.82743621 51.25406035 42.02806276 53.25920802 43.2265625 55.265625 C43.75846191 56.15024414 44.29036133 57.03486328 44.83837891 57.94628906 C46 60 46 60 46 61 C39.73 61 33.46 61 27 61 C25.845 58.89625 24.69 56.7925 23.5 54.625 C23.13455078 53.9645166 22.76910156 53.3040332 22.39257812 52.62353516 C20 48.22222222 20 48.22222222 20 46 C17.91929861 47.08908978 17.91929861 47.08908978 16 49 C15.30047511 51.95551526 15.30047511 51.95551526 15.25 55.1875 C15.1675 57.105625 15.085 59.02375 15 61 C10.05 61 5.1 61 0 61 C0 40.87 0 20.74 0 0 Z " fill="#FFC10E" transform="translate(307,40)"/>
<path d="M0 0 C0.92619141 0.57234375 0.92619141 0.57234375 1.87109375 1.15625 C3.274405 2.063703 4.64248249 3.02537205 6 4 C5.48118887 8.1724106 4.28848726 10.25416821 1.4375 13.3125 C0.79683594 14.00988281 0.15617188 14.70726563 -0.50390625 15.42578125 C-0.99761719 15.94527344 -1.49132812 16.46476562 -2 17 C-2.556875 16.57847656 -3.11375 16.15695313 -3.6875 15.72265625 C-8.90093959 11.97989978 -12.504626 9.79379765 -19 10 C-23.15113283 11.28416339 -26.13898176 12.97233307 -28.9375 16.3125 C-31.33937756 22.38783735 -31.26474256 26.94539503 -29.0234375 32.98046875 C-26.99526655 36.98262287 -24.12885504 38.62371499 -20 40 C-12.6206987 40.72346091 -7.94155485 37.96103657 -2 34 C-0.86874978 35.07680502 0.25474919 36.16175635 1.375 37.25 C2.00148438 37.85328125 2.62796875 38.4565625 3.2734375 39.078125 C4.97310161 40.9700588 5.98459866 42.68201309 7 45 C-2.20069038 52.52100031 -9.21993284 55.73078423 -21.33203125 55.390625 C-28.41704313 54.63609764 -34.9679298 52.17184993 -40 47 C-46.34768478 38.96596287 -49.07093664 31.25039359 -48 21 C-46.49080858 12.84529343 -43.34575159 6.1511848 -36.52734375 1.20703125 C-25.65118082 -5.53651013 -11.20730417 -7.04323149 0 0 Z " fill="#FFC10E" transform="translate(532,47)"/>
<path d="M0 0 C4.95 0 9.9 0 15 0 C15.33 1.65 15.66 3.3 16 5 C16.763125 4.360625 17.52625 3.72125 18.3125 3.0625 C23.37177349 -0.82019826 28.847716 -0.65131476 35 0 C38.5 1.8125 38.5 1.8125 41 4 C41.86625 4.6496875 41.86625 4.6496875 42.75 5.3125 C46.20085868 9.97115922 46.24155047 15.8931678 46.1953125 21.46484375 C46.1924826 22.14301651 46.18965271 22.82118927 46.18673706 23.51991272 C46.17565416 25.65929766 46.1505736 27.7982443 46.125 29.9375 C46.11495476 31.39908244 46.10583163 32.86067153 46.09765625 34.32226562 C46.07746598 37.88180996 46.03829791 41.44042171 46 45 C40.72 45 35.44 45 30 45 C29.96261719 43.08574219 29.92523438 41.17148438 29.88671875 39.19921875 C29.82107274 36.69529245 29.75462494 34.19138709 29.6875 31.6875 C29.66494141 30.42486328 29.64238281 29.16222656 29.61914062 27.86132812 C29.5659668 26.04858398 29.5659668 26.04858398 29.51171875 24.19921875 C29.48553467 23.08377686 29.45935059 21.96833496 29.43237305 20.8190918 C29.22000025 18.0068996 29.22000025 18.0068996 27.65551758 16.13598633 C25.06190716 14.3562976 23.05183485 14.61852064 20 15 C17.44050454 16.85342775 17.02081202 17.93756393 16 21 C15.85110253 22.84466442 15.7520899 24.69357275 15.68359375 26.54296875 C15.64169922 27.61611328 15.59980469 28.68925781 15.55664062 29.79492188 C15.49766602 31.47424805 15.49766602 31.47424805 15.4375 33.1875 C15.39431641 34.31865234 15.35113281 35.44980469 15.30664062 36.61523438 C15.2005099 39.41001025 15.09974603 42.20498898 15 45 C10.05 45 5.1 45 0 45 C0 30.15 0 15.3 0 0 Z " fill="#FFC10E" transform="translate(382,56)"/>
<path d="M0 0 C4.83229573 4.23956091 7.67097426 8.79773785 8.3359375 15.26953125 C8.48275019 28.58544219 8.48275019 28.58544219 4 34 C-1.96804719 39.88882533 -8.09931663 41.90734543 -16.3125 42.375 C-22.6193142 42.18950546 -29.11194435 40.47958563 -33.9609375 36.31640625 C-39.45970194 30.08000268 -41.05493478 24.28416419 -41 16 C-40.12202205 9.48597006 -37.88433631 4.77031413 -32.93359375 0.40625 C-23.51024805 -6.44709232 -9.77915603 -6.04786865 0 0 Z M-22.9375 11.5 C-25.13927506 14.60150374 -25.74922582 17.25412361 -25.48046875 21.03125 C-24.55226921 24.83460422 -23.00053754 26.44635103 -20 29 C-16.5 29.91666667 -16.5 29.91666667 -13 29 C-9.42154565 26.51064045 -7.75668583 24.28820116 -6.9375 20.0625 C-6.62490434 15.71906563 -8.18162499 13.30152501 -11 10 C-15.61768473 7.69115764 -19.08896999 8.22465531 -22.9375 11.5 Z " fill="#FFC10E" transform="translate(241,60)"/>
<path d="M0 0 C3.32082027 2.65323269 5.1802928 5.20494089 6.515625 9.2109375 C6.6003067 11.72461805 6.63164385 14.20963124 6.61328125 16.72265625 C6.6118663 17.45088089 6.61045135 18.17910553 6.60899353 18.92939758 C6.60340159 21.25245289 6.59085062 23.57541138 6.578125 25.8984375 C6.57310896 27.47460798 6.56854623 29.05077998 6.56445312 30.62695312 C6.55428621 34.48834845 6.53470936 38.34953475 6.515625 42.2109375 C1.565625 42.2109375 -3.384375 42.2109375 -8.484375 42.2109375 C-8.814375 41.5509375 -9.144375 40.8909375 -9.484375 40.2109375 C-10.433125 40.7059375 -11.381875 41.2009375 -12.359375 41.7109375 C-18.14314857 44.17461387 -23.97638274 44.09337922 -29.859375 42.0234375 C-33.01892595 39.8418428 -34.66389202 38.64184773 -36.484375 35.2109375 C-37.19742962 30.46612545 -37.57189289 25.63124328 -35.56640625 21.16796875 C-32.7744707 17.50863575 -29.79402638 16.3588353 -25.484375 15.2109375 C-22.6964657 14.86030456 -19.91559518 14.70772644 -17.109375 14.5859375 C-16.37332031 14.54726562 -15.63726563 14.50859375 -14.87890625 14.46875 C-13.08110094 14.37535752 -11.28277392 14.2921004 -9.484375 14.2109375 C-11.31481831 11.14601827 -11.31481831 11.14601827 -14.4296875 9.75 C-19.99959559 9.96960211 -25.07659365 10.83753271 -30.484375 12.2109375 C-31.804375 8.9109375 -33.124375 5.6109375 -34.484375 2.2109375 C-23.94611081 -2.59327118 -10.77577141 -6.60601639 0 0 Z M-22.484375 26.2109375 C-22.31929854 28.78633963 -22.31929854 28.78633963 -21.484375 31.2109375 C-18.59575791 32.65524605 -16.68789799 32.58782256 -13.484375 32.2109375 C-10.54583426 30.02291169 -10.54583426 30.02291169 -8.484375 27.2109375 C-8.484375 26.2209375 -8.484375 25.2309375 -8.484375 24.2109375 C-10.44241007 24.15704663 -12.40086409 24.11819533 -14.359375 24.0859375 C-15.44992187 24.06273438 -16.54046875 24.03953125 -17.6640625 24.015625 C-20.6214801 23.91033216 -20.6214801 23.91033216 -22.484375 26.2109375 Z " fill="#FFC10E" transform="translate(576.484375,58.7890625)"/>
<path d="M0 0 C4.48340071 4.00901599 7.73454426 8.32074902 8.3359375 14.390625 C8.48078036 28.70109963 8.48078036 28.70109963 4 34 C-1.95741289 39.86515208 -7.73085029 41.65571373 -15.875 42.3125 C-23.34417926 42.06303822 -30.18774058 39.90247793 -35.59375 34.63671875 C-40.74138211 28.64544694 -40.58023671 22.25703568 -40.4140625 14.60546875 C-39.84341639 9.63654087 -38.39739034 6.61196237 -35 3 C-34.53078125 2.49984375 -34.0615625 1.9996875 -33.578125 1.484375 C-24.79130162 -6.73555655 -9.82602863 -5.99702459 0 0 Z M-22.4375 10.4375 C-24.70629427 14.1583226 -25.21668709 17.6662581 -25 22 C-23.64913319 25.02336858 -22.32414606 26.67585394 -20 29 C-14.50167888 29.56848812 -14.50167888 29.56848812 -9.5625 27.5625 C-7.29370573 23.8416774 -6.78331291 20.3337419 -7 16 C-8.35086681 12.97663142 -9.67585394 11.32414606 -12 9 C-17.49832112 8.43151188 -17.49832112 8.43151188 -22.4375 10.4375 Z " fill="#FFC10E" transform="translate(292,60)"/>
<path d="M0 0 C5.02644093 4.22495832 7.85468301 9.56010359 9 16 C9 18.64 9 21.28 9 24 C-0.9 24 -10.8 24 -21 24 C-19.42414967 27.84305208 -19.42414967 27.84305208 -17.375 29.3125 C-13.79279407 30.34945435 -10.58653015 29.92603033 -7 29 C-4.56111818 27.59394927 -4.56111818 27.59394927 -3 26 C0.82792868 27.5595265 3.36359864 29.83631836 6 33 C5.90234375 34.99609375 5.90234375 34.99609375 5 37 C3.109375 38.44921875 3.109375 38.44921875 0.75 39.6875 C-0.01828125 40.10386719 -0.7865625 40.52023438 -1.578125 40.94921875 C-9.04393024 44.18841489 -17.32834538 43.85661554 -24.859375 41.0390625 C-30.01867094 38.53473272 -34.58303894 34.80095634 -36.5625 29.24609375 C-38.01781883 21.77459084 -38.39104266 13.36343067 -34.33203125 6.6796875 C-26.29224032 -3.45846529 -11.46554386 -7.20764614 0 0 Z M-21 12 C-21.33 12.99 -21.66 13.98 -22 15 C-16.72 15 -11.44 15 -6 15 C-7.485 12.03 -7.485 12.03 -9 9 C-14.45595374 7.18134875 -17.07410361 7.84316853 -21 12 Z " fill="#FFC10E" transform="translate(659,59)"/>
<path d="M0 0 C4.95 0 9.9 0 15 0 C15.33 1.65 15.66 3.3 16 5 C16.639375 4.360625 17.27875 3.72125 17.9375 3.0625 C22.06693371 0.28145281 25.06567216 0.29458674 30 0 C30 4.62 30 9.24 30 14 C27.49348958 14.42317708 24.98697917 14.84635417 22.48046875 15.26953125 C19.74247491 16.0758381 18.68354217 16.72164167 17 19 C16.03721137 22.07257721 15.81414247 24.99535649 15.68359375 28.203125 C15.64169922 29.1828125 15.59980469 30.1625 15.55664062 31.171875 C15.51732422 32.18765625 15.47800781 33.2034375 15.4375 34.25 C15.39431641 35.28125 15.35113281 36.3125 15.30664062 37.375 C15.20074413 39.91651588 15.09988519 42.45824077 15 45 C10.05 45 5.1 45 0 45 C0 30.15 0 15.3 0 0 Z " fill="#FFC10E" transform="translate(591,56)"/>
<path d="M0 0 C4.95 0 9.9 0 15 0 C15 14.85 15 29.7 15 45 C10.05 45 5.1 45 0 45 C0 30.15 0 15.3 0 0 Z " fill="#FFC10E" transform="translate(357,56)"/>
<path d="M0 0 C3.5 0.8125 3.5 0.8125 5.375 1.9375 C7.12149255 4.84832092 7.32332188 7.4556158 7.5 10.8125 C6.71270916 13.46066011 5.97719891 14.44134529 3.8125 16.125 C0.42838082 17.13108949 -2.09666774 16.61692399 -5.5 15.8125 C-8.14764845 14.13565598 -8.45477045 12.96111139 -9.375 9.9375 C-9.52524355 6.18141137 -8.78344384 4.74835637 -6.5 1.8125 C-3.5 -0.1875 -3.5 -0.1875 0 0 Z " fill="#FFC10E" transform="translate(365.5,36.1875)"/>
</svg>
