<?xml version="1.0" encoding="UTF-8"?>
<svg version="1.1" xmlns="http://www.w3.org/2000/svg" width="700" height="200">
<path d="M0 0 C7.17150787 -0.10146163 14.34283049 -0.17149156 21.51489258 -0.21972656 C23.95441607 -0.23983564 26.3938914 -0.26712683 28.83325195 -0.30175781 C32.34077848 -0.35030489 35.84766743 -0.37297632 39.35546875 -0.390625 C40.44522507 -0.41127014 41.53498138 -0.43191528 42.65776062 -0.45318604 C50.21523657 -0.45542307 50.21523657 -0.45542307 54.1652832 1.83691406 C57.07707056 5.26983968 57.27259473 8.37582295 57.2097168 12.7878418 C56.84482507 16.63683356 55.52554735 20.06317807 54.15625 23.65625 C53.86770142 24.44398804 53.57915283 25.23172607 53.28186035 26.04333496 C52.36658435 28.53352417 51.43366455 31.01665475 50.5 33.5 C49.87251549 35.19748004 49.24620155 36.89539328 48.62109375 38.59375 C47.09421643 42.73429781 45.55149105 46.86861548 44 51 C47.41763442 50.32095037 50.11209885 48.99582261 53.1640625 47.33203125 C54.19015625 46.77580078 55.21625 46.21957031 56.2734375 45.64648438 C57.37945312 45.04126953 58.48546875 44.43605469 59.625 43.8125 C61.38832791 42.85506805 63.15165941 41.89764262 64.91522217 40.94064331 C66.74271593 39.94825945 68.56917634 38.95399365 70.39550781 37.95947266 C75.9198135 34.9534644 81.46070908 31.9782725 87 29 C89.15242768 27.84130173 91.30477101 26.68244676 93.45703125 25.5234375 C94.52775879 24.9469043 95.59848633 24.37037109 96.70166016 23.77636719 C100.09695807 21.94778187 103.49187581 20.11849233 106.88671875 18.2890625 C108.02560547 17.67546875 109.16449219 17.061875 110.33789062 16.4296875 C112.47865323 15.27629703 114.61929067 14.1226742 116.75976562 12.96875 C118.77252659 11.88445196 120.79061735 10.8099936 122.8137207 9.74511719 C125.09911686 8.49341144 127.27605362 7.21320955 129.47338867 5.82519531 C139.39887057 -0.256685 147.45998812 -1.02120221 158.9375 -0.5 C160.50706839 -0.45973384 162.0767387 -0.42325665 163.64648438 -0.390625 C167.43358242 -0.30385451 171.21561033 -0.16664261 175 0 C175.75 3.25 175.75 3.25 176 7 C173.64830264 10.25530522 170.68347753 11.92784076 167.16796875 13.77734375 C166.21631836 14.28410645 165.26466797 14.79086914 164.28417969 15.31298828 C163.26227539 15.84907715 162.24037109 16.38516602 161.1875 16.9375 C159.0081429 18.09843818 156.82978151 19.26124718 154.65234375 20.42578125 C153.54358887 21.0182666 152.43483398 21.61075195 151.29248047 22.22119141 C146.23803648 24.95192542 141.24228189 27.7826353 136.25 30.625 C125.88746335 36.51658188 115.46126835 42.28580346 105 48 C106.24394531 47.98195312 107.48789063 47.96390625 108.76953125 47.9453125 C113.23515159 47.8805263 116.15249447 48.53178891 120 51 C125.65822638 59.42352498 128.5749391 70.16082644 132.0625 79.625 C133.05255982 82.29777605 134.04394766 84.97005689 135.03547668 87.64228821 C135.70511626 89.44743679 136.37405028 91.25284727 137.0422821 93.05851746 C139.20274992 98.88750846 141.40918772 104.6969622 143.6484375 110.49609375 C144.48118408 112.66542335 145.31309054 114.83507324 146.14474487 117.00482178 C146.6685693 118.36446245 147.19627376 119.72261534 147.72805786 121.0791626 C148.46329073 122.95625945 149.18316564 124.8393499 149.90234375 126.72265625 C150.30960693 127.77203369 150.71687012 128.82141113 151.13647461 129.90258789 C152.11277137 133.40450394 152.22101867 136.38092387 152 140 C151 141 151 141 148.63987732 141.12025452 C147.59396927 141.11803391 146.54806122 141.11581329 145.47045898 141.11352539 C144.28931015 141.11344986 143.10816132 141.11337433 141.89122009 141.11329651 C140.6058284 141.10813522 139.32043671 141.10297394 137.99609375 141.09765625 C136.0338662 141.09553383 136.0338662 141.09553383 134.03199768 141.09336853 C130.54837141 141.0895441 127.06478661 141.07971446 123.58117676 141.06866455 C120.02873292 141.05844882 116.47628241 141.05387056 112.92382812 141.04882812 C105.94920168 141.03809212 98.97460283 141.0210166 92 141 C89.26061885 135.01810078 86.79649635 128.99021336 84.546875 122.80859375 C84.24179016 121.97787857 83.93670532 121.14716339 83.62237549 120.29127502 C82.66204722 117.67439128 81.70595117 115.05598544 80.75 112.4375 C80.09403102 110.64768344 79.43778348 108.85796894 78.78125 107.06835938 C77.18428203 102.71341115 75.59110398 98.3570939 74 94 C64.62315565 98.6416345 55.30729253 103.35597541 46.125 108.375 C45.09528076 108.93533936 44.06556152 109.49567871 43.00463867 110.07299805 C37.78754529 112.91651059 32.57650347 115.77086106 27.38623047 118.66308594 C25.99032332 119.43680043 24.58946224 120.20163664 23.18408203 120.95800781 C18.51494394 123.49475945 14.07311546 126.24886934 9.63671875 129.17578125 C-8.92072466 141.08029705 -25.04268374 143.90793391 -47 141 C-48 140 -48 140 -48.625 136.8125 C-48 133 -48 133 -46.0625 131.23828125 C-43.12699299 129.29538959 -40.14729842 127.57364921 -37 126 C-38.98 125.34 -40.96 124.68 -43 124 C-43.75909111 116.71896266 -41.02442692 110.61088621 -38.53125 103.86328125 C-38.05793126 102.55774565 -37.58560782 101.25184884 -37.11421204 99.94561768 C-35.85036184 96.45209352 -34.57295101 92.96367577 -33.29272842 89.47612381 C-31.96824677 85.86116569 -30.65596193 82.24178659 -29.3425293 78.62280273 C-27.23392663 72.81715437 -25.11826765 67.01412687 -22.99755859 61.21289062 C-20.32998784 53.91425001 -17.68567485 46.60738028 -15.05078125 39.296875 C-13.9735662 36.31302904 -12.8958734 33.3293563 -11.81787109 30.34579468 C-11.15402209 28.50797837 -10.49076164 26.66994934 -9.828125 24.83169556 C-8.91609445 22.30454277 -7.99971454 19.77901093 -7.08203125 17.25390625 C-6.82569412 16.54107483 -6.56935699 15.82824341 -6.30525208 15.09381104 C-4.43082115 9.95587804 -2.27180776 4.97412089 0 0 Z " fill="#D1000E" transform="translate(55,16)"/>
<path d="M0 0 C0.74572266 0.00217529 1.49144531 0.00435059 2.25976562 0.0065918 C4.5382459 0.00975365 6.81543021 -0.01370955 9.09375 -0.0390625 C10.53645669 -0.04133525 11.97916688 -0.0420391 13.421875 -0.04101562 C15.39800781 -0.04548706 15.39800781 -0.04548706 17.4140625 -0.05004883 C18.44789063 0.07281494 19.48171875 0.19567871 20.546875 0.32226562 C22.8180053 3.72896107 22.57517541 5.05868033 22.03125 8.99414062 C21.37360123 12.15509761 20.45913748 15.22655525 19.546875 18.32226562 C20.92359375 17.12730469 20.92359375 17.12730469 22.328125 15.90820312 C23.56759123 14.83775502 24.80718125 13.76745023 26.046875 12.69726562 C26.64757812 12.17519531 27.24828125 11.653125 27.8671875 11.11523438 C28.47304688 10.59316406 29.07890625 10.07109375 29.703125 9.53320312 C30.24775391 9.06188965 30.79238281 8.59057617 31.35351562 8.10498047 C32.07732422 7.51668457 32.80113281 6.92838867 33.546875 6.32226562 C34.37942307 5.57235603 34.37942307 5.57235603 35.22879028 4.80729675 C40.54176173 0.32783106 44.3781884 -0.52325248 51.2265625 -0.29882812 C52.56752487 -0.28965111 52.56752487 -0.28965111 53.93557739 -0.2802887 C56.76553107 -0.25353789 59.59267618 -0.18444509 62.421875 -0.11523438 C64.34372198 -0.09368973 66.26560046 -0.07478402 68.1875 -0.05859375 C82.11965499 0.10865562 82.11965499 0.10865562 84.546875 1.32226562 C85.206875 0.99226563 85.866875 0.66226563 86.546875 0.32226562 C88.9523877 0.22433121 91.3288861 0.18593307 93.73461914 0.19287109 C94.47457626 0.19111877 95.21453339 0.18936646 95.97691345 0.18756104 C98.42864307 0.18315105 100.88030087 0.18607721 103.33203125 0.18945312 C105.03071608 0.18877991 106.72940082 0.18780974 108.42808533 0.18655396 C111.989908 0.1850782 115.55170562 0.1872279 119.11352539 0.19189453 C123.68932364 0.19759608 128.2650633 0.19430935 132.84085941 0.18832207 C136.34859157 0.18471686 139.85630972 0.18585478 143.36404228 0.18844986 C145.05182337 0.18911902 146.73960571 0.1882911 148.42738533 0.18597031 C150.7811332 0.18344397 153.13478473 0.18728388 155.48852539 0.19287109 C156.19244415 0.19084686 156.89636292 0.18882263 157.62161255 0.18673706 C162.43261136 0.20800198 162.43261136 0.20800198 163.546875 1.32226562 C163.95503472 7.53459492 162.94956192 12.37131677 160.859375 18.19726562 C160.61509766 18.95523438 160.37082031 19.71320312 160.11914062 20.49414062 C159.86455078 21.21859375 159.60996094 21.94304688 159.34765625 22.68945312 C159.12247314 23.34026855 158.89729004 23.99108398 158.6652832 24.66162109 C156.95945543 27.19448302 155.49825754 27.5406742 152.546875 28.32226562 C149.46350451 28.57693665 146.40064943 28.55516649 143.30859375 28.51757812 C141.98744316 28.51333328 141.98744316 28.51333328 140.63960266 28.50900269 C137.83771955 28.49784395 135.03616084 28.47274733 132.234375 28.44726562 C130.33008275 28.43723026 128.42578548 28.42810538 126.52148438 28.41992188 C121.86315703 28.39791872 117.20507094 28.36341856 112.546875 28.32226562 C112.546875 28.98226562 112.546875 29.64226562 112.546875 30.32226562 C114.07610596 30.35984985 114.07610596 30.35984985 115.63623047 30.39819336 C119.41207854 30.49223567 123.18774127 30.592464 126.96337891 30.69458008 C128.59875153 30.737941 130.23416977 30.77961524 131.86962891 30.81958008 C134.21791341 30.87725474 136.56596804 30.94095692 138.9140625 31.00585938 C139.64744843 31.02257187 140.38083435 31.03928436 141.13644409 31.0565033 C146.31913159 31.20839392 146.31913159 31.20839392 148.546875 32.32226562 C149.99273927 36.58295075 149.17196127 39.50225607 147.796875 43.69726562 C147.42433594 44.83421875 147.05179688 45.97117188 146.66796875 47.14257812 C143.36850688 56.50063375 143.36850688 56.50063375 141.546875 58.32226562 C138.58982179 58.41094861 135.65622444 58.43746858 132.69921875 58.41992188 C131.36957848 58.41779945 131.36957848 58.41779945 130.01307678 58.41563416 C127.17014246 58.41001778 124.32728569 58.39746254 121.484375 58.38476562 C119.56185009 58.37975273 117.63932396 58.37518946 115.71679688 58.37109375 C110.99345951 58.36004303 106.27018042 58.34276745 101.546875 58.32226562 C100.886875 60.63226563 100.226875 62.94226563 99.546875 65.32226562 C101.31115845 65.3144104 101.31115845 65.3144104 103.11108398 65.30639648 C107.45889531 65.288349 111.8067033 65.27683455 116.15454102 65.26733398 C118.0393123 65.26229318 119.92407965 65.25546064 121.80883789 65.24682617 C124.51189136 65.23474945 127.21489331 65.22903494 129.91796875 65.22460938 C131.18984291 65.21686745 131.18984291 65.21686745 132.4874115 65.20896912 C134.50758568 65.20877368 136.52765434 65.26020352 138.546875 65.32226562 C140.08574264 66.86113326 139.86580712 68.2325789 139.984375 70.38476562 C139.95191681 77.8393308 136.89430111 88.97483951 131.546875 94.32226562 C129.49754429 94.57953453 129.49754429 94.57953453 126.92274475 94.58969116 C125.94828903 94.59822113 124.97383331 94.6067511 123.96984863 94.61553955 C122.89706665 94.61463318 121.82428467 94.61372681 120.71899414 94.61279297 C119.59210678 94.61951019 118.46521942 94.62622742 117.30418396 94.63314819 C113.56342206 94.65221183 109.82283875 94.65605653 106.08203125 94.65820312 C103.49132715 94.6646249 100.9006238 94.67135278 98.30992126 94.67837524 C92.87334198 94.69036875 87.43683404 94.69413931 82.00024414 94.69287109 C75.71308273 94.69166921 69.42626436 94.71277749 63.13918978 94.74435842 C57.09500531 94.7736395 51.05100741 94.78084786 45.00674248 94.77965164 C42.43303462 94.78201829 39.85932447 94.79090105 37.2856617 94.80631638 C33.69153185 94.82582862 30.09829343 94.820196 26.50415039 94.80810547 C24.89801376 94.82496399 24.89801376 94.82496399 23.25942993 94.84216309 C22.28215439 94.83377411 21.30487885 94.82538513 20.29798889 94.81674194 C19.44792802 94.81783148 18.59786715 94.81892101 17.72204685 94.82004356 C15.546875 94.32226562 15.546875 94.32226562 13.78842831 92.43625832 C12.38005965 90.03822914 11.96060376 88.2289398 11.59765625 85.47851562 C11.47197266 84.56199219 11.34628906 83.64546875 11.21679688 82.70117188 C11.09884766 81.75113281 10.98089844 80.80109375 10.859375 79.82226562 C10.72982422 78.87222656 10.60027344 77.9221875 10.46679688 76.94335938 C9.94434912 73.01256197 9.546875 69.2969279 9.546875 65.32226562 C8.92039062 65.82757813 8.29390625 66.33289063 7.6484375 66.85351562 C6.83117187 67.50320312 6.01390625 68.15289062 5.171875 68.82226562 C4.35976563 69.47195312 3.54765625 70.12164062 2.7109375 70.79101562 C0.546875 72.32226562 0.546875 72.32226562 -1.453125 72.32226562 C-1.62328125 73.0003125 -1.7934375 73.67835937 -1.96875 74.37695312 C-3.65025327 80.83464122 -5.41698701 87.34832611 -8.453125 93.32226562 C-11.4073807 94.79939348 -14.06572704 94.4521656 -17.359375 94.45507812 C-18.03987915 94.45603485 -18.7203833 94.45699158 -19.42150879 94.45797729 C-20.86059664 94.45865794 -22.29968757 94.45681169 -23.73876953 94.45263672 C-25.94440593 94.44728677 -28.1498387 94.45258554 -30.35546875 94.45898438 C-31.75260462 94.45832357 -33.14974036 94.45704237 -34.546875 94.45507812 C-35.82240234 94.4539502 -37.09792969 94.45282227 -38.41210938 94.45166016 C-41.453125 94.32226562 -41.453125 94.32226562 -43.453125 93.32226562 C-43.77996464 86.49471282 -42.88317162 81.50062861 -40.4453125 75.15429688 C-40.12782043 74.2924025 -39.81032837 73.43050812 -39.48321533 72.54249573 C-38.44524925 69.73459645 -37.38704412 66.93482251 -36.328125 64.13476562 C-35.60267928 62.18620228 -34.87857374 60.2371395 -34.15576172 58.28759766 C-32.66981438 54.28472301 -31.17630741 50.28478499 -29.67773438 46.28662109 C-27.53244571 40.55157896 -25.43213601 34.80088714 -23.34375 29.04492188 C-22.39264629 26.43072128 -21.44105304 23.81669939 -20.48931885 21.20272827 C-19.88335559 19.53654241 -19.27865331 17.86989741 -18.67523193 16.20278931 C-17.83832936 13.8942599 -16.99434638 11.58844476 -16.1484375 9.28320312 C-15.90329407 8.60197891 -15.65815063 7.9207547 -15.40557861 7.21888733 C-12.32122417 -1.13250471 -8.06515585 0.03117569 0 0 Z M75.171875 14.75976562 C69.42074781 19.45321425 63.50254347 23.89292425 57.546875 28.32226562 C55.3370291 29.96608082 53.12899656 31.61229507 50.921875 33.25976562 C49.93960938 33.99066406 48.95734375 34.7215625 47.9453125 35.47460938 C45.53023763 37.25314492 45.53023763 37.25314492 43.546875 39.32226562 C43.59863909 41.42680446 43.59863909 41.42680446 44.1640625 43.87304688 C44.36483398 44.85998535 44.56560547 45.84692383 44.77246094 46.86376953 C46.31831758 53.76749124 47.98035957 60.64049028 49.671875 67.50976562 C50.0484732 69.04940677 50.4247774 70.58911985 50.80078125 72.12890625 C51.71276325 75.86086296 52.62870167 79.59182756 53.546875 83.32226562 C54.206875 83.32226562 54.866875 83.32226562 55.546875 83.32226562 C58.20141783 76.15049644 60.8533023 68.97774885 63.50199413 61.8038168 C64.73258027 58.47104131 65.96400698 55.13858198 67.19750977 51.80688477 C74.68948902 31.67560937 74.68948902 31.67560937 81.546875 11.32226562 C78.58276187 11.32226562 77.43364597 12.88227613 75.171875 14.75976562 Z " fill="#000000" transform="translate(273.453125,40.677734375)"/>
<path d="M0 0 C1.00865112 -0.00953201 2.01730225 -0.01906403 3.05651855 -0.02888489 C4.15226196 -0.02797348 5.24800537 -0.02706207 6.37695312 -0.02612305 C8.06842468 -0.03255074 8.06842468 -0.03255074 9.79406738 -0.03910828 C12.18822559 -0.04486287 14.58240129 -0.04534358 16.9765625 -0.04101562 C20.61554534 -0.03787857 24.25369726 -0.06122147 27.89257812 -0.08666992 C30.2207021 -0.08894528 32.54882826 -0.08964531 34.87695312 -0.08862305 C35.95650269 -0.09783279 37.03605225 -0.10704254 38.14831543 -0.11653137 C47.1856779 -0.0620836 56.09337043 1.19561612 63.15820312 7.2746582 C69.90842624 16.17101204 70.10064355 25.44666689 69.15820312 36.2746582 C68.24239811 41.71429218 66.74873585 46.99891795 65.15820312 52.2746582 C65.68438232 51.56055786 65.68438232 51.56055786 66.22119141 50.83203125 C66.7186084 50.15696533 67.21602539 49.48189941 67.72851562 48.78637695 C68.28837158 48.02655518 68.84822754 47.2667334 69.42504883 46.48388672 C70.6787259 44.78250314 71.93247095 43.08116965 73.1862793 41.37988281 C76.4219748 36.98918627 79.65669196 32.59777817 82.88867188 28.2043457 C93.2902806 14.06760107 93.2902806 14.06760107 98.40820312 7.2121582 C99.09398437 6.29305664 99.77976562 5.37395508 100.48632812 4.42700195 C102.15820312 2.2746582 102.15820312 2.2746582 104.15820312 0.2746582 C106.79936425 0.08728171 109.33374293 0.01895954 111.97460938 0.04418945 C112.74626938 0.04464767 113.51792938 0.0451059 114.31297302 0.045578 C115.94458554 0.04860033 117.57619518 0.05648607 119.20776367 0.06884766 C121.71413312 0.08711033 124.22013345 0.08935732 126.7265625 0.08911133 C128.30924801 0.09402622 129.891931 0.09985442 131.47460938 0.10668945 C132.6058297 0.10835869 132.6058297 0.10835869 133.75990295 0.11006165 C139.04215193 0.15860701 139.04215193 0.15860701 140.15820312 1.2746582 C140.25342731 4.13557638 140.28373638 6.97229441 140.27172852 9.83349609 C140.27187454 10.73097061 140.27202057 11.62844513 140.27217102 12.55311584 C140.27147154 15.53453954 140.26367754 18.5159016 140.25585938 21.49731445 C140.25399532 23.55854763 140.25257136 25.61978124 140.25157166 27.68101501 C140.2477455 33.1176983 140.23791438 38.55435506 140.22686768 43.99102783 C140.21665565 49.53413535 140.21207448 55.07724713 140.20703125 60.62036133 C140.1962922 71.50513864 140.17921462 82.38989622 140.15820312 93.2746582 C137.20394742 94.75178606 134.54560108 94.40455818 131.25195312 94.4074707 C130.57144897 94.40842743 129.89094482 94.40938416 129.18981934 94.41036987 C127.75073148 94.41105052 126.31164055 94.40920427 124.87255859 94.4050293 C122.66692219 94.39967935 120.46148943 94.40497812 118.25585938 94.41137695 C116.85872351 94.41071615 115.46158777 94.40943495 114.06445312 94.4074707 C112.15116211 94.40577881 112.15116211 94.40577881 110.19921875 94.40405273 C107.15820312 94.2746582 107.15820312 94.2746582 105.15820312 93.2746582 C104.14989741 88.59978626 104.28154433 84.93479182 105.15820312 80.2746582 C93.30889901 79.13203063 93.30889901 79.13203063 82.41064453 82.48364258 C79.53320707 85.649755 77.89295339 89.41217218 76.15820312 93.2746582 C73.21099703 94.74826125 70.22784945 94.41699416 66.99804688 94.4074707 C66.29297501 94.40842743 65.58790314 94.40938416 64.86146545 94.41036987 C63.37110301 94.41105049 61.88073761 94.40920442 60.39038086 94.4050293 C58.10133255 94.39967138 55.81247975 94.40498229 53.5234375 94.41137695 C52.07747352 94.41071631 50.63150967 94.40943542 49.18554688 94.4074707 C48.15275856 94.41050705 48.15275856 94.41050705 47.09910583 94.41360474 C42.27316076 94.38961584 42.27316076 94.38961584 41.15820312 93.2746582 C40.70360455 90.62002699 40.45577075 87.95276683 40.15820312 85.2746582 C39.454375 85.67297852 38.75054688 86.07129883 38.02539062 86.48168945 C37.03796875 87.01149414 36.05054688 87.54129883 35.03320312 88.0871582 C34.081875 88.60922852 33.13054687 89.13129883 32.15039062 89.66918945 C19.44053544 95.25974334 5.86240837 94.68337857 -7.72314453 94.5559082 C-11.12608648 94.52434011 -14.52856573 94.51488628 -17.93164062 94.5090332 C-20.09440675 94.49987758 -22.25716815 94.48950646 -24.41992188 94.4777832 C-25.43749573 94.47353333 -26.45506958 94.46928345 -27.503479 94.46490479 C-28.4391571 94.45529724 -29.37483521 94.4456897 -30.33886719 94.43579102 C-31.16267883 94.42896301 -31.98649048 94.42213501 -32.83526611 94.4151001 C-34.84179688 94.2746582 -34.84179688 94.2746582 -36.84179688 93.2746582 C-37.21518328 86.16913728 -36.09186509 80.95927929 -33.58007812 74.3449707 C-33.06637665 72.939739 -33.06637665 72.939739 -32.54229736 71.50611877 C-31.42683463 68.46530999 -30.29103816 65.43256928 -29.15429688 62.3996582 C-28.37892958 60.3008977 -27.60476929 58.2016909 -26.83178711 56.10205078 C-25.26821461 51.86215125 -23.69625336 47.62551041 -22.1171875 43.39135742 C-20.01772602 37.75799435 -17.94904012 32.113818 -15.88867188 26.46606445 C-15.00637055 24.05626352 -14.12302069 21.64685164 -13.23886108 19.23773193 C-12.6844395 17.7260122 -12.1312282 16.21384803 -11.57925415 14.70123291 C-10.81946943 12.62334317 -10.05248062 10.5482676 -9.28320312 8.47387695 C-8.85724854 7.31718506 -8.43129395 6.16049316 -7.99243164 4.96875 C-6.08072641 0.49269076 -4.63760678 0.02403055 0 0 Z M21.15820312 29.2746582 C17.75033633 37.04066235 14.75478531 44.93585196 11.84570312 52.8996582 C11.30333008 54.37619873 11.30333008 54.37619873 10.75 55.88256836 C10.41419922 56.80859863 10.07839844 57.73462891 9.73242188 58.6887207 C9.42908936 59.5235498 9.12575684 60.35837891 8.81323242 61.21850586 C8.05702317 63.23260312 8.05702317 63.23260312 8.15820312 65.2746582 C14.31857428 65.16465158 17.7793192 63.90531949 22.26757812 59.63793945 C27.55157689 53.032941 31.54314606 43.50264322 32.53320312 35.0871582 C32.40718318 32.23473326 32.40718318 32.23473326 30.59570312 30.3996582 C27.35546525 28.9041638 24.68213954 29.07135418 21.15820312 29.2746582 Z M106.15820312 47.2746582 C105.12807035 48.92287064 104.12705684 50.58969522 103.15820312 52.2746582 C104.47820312 52.2746582 105.79820312 52.2746582 107.15820312 52.2746582 C107.15820312 50.6246582 107.15820312 48.9746582 107.15820312 47.2746582 C106.82820312 47.2746582 106.49820313 47.2746582 106.15820312 47.2746582 Z " fill="#000000" transform="translate(547.841796875,40.725341796875)"/>
<path d="M0 0 C1.23363281 0.00410889 2.46726562 0.00821777 3.73828125 0.01245117 C4.72574341 0.0131385 4.72574341 0.0131385 5.7331543 0.01383972 C7.12518109 0.01686111 8.51720453 0.02474411 9.90917969 0.03710938 C12.04243928 0.0553486 14.17526438 0.05761916 16.30859375 0.05737305 C26.75568492 0.09537176 26.75568492 0.09537176 29.05078125 1.24291992 C29.93654377 3.53211554 30.708731 5.78140739 31.43359375 8.12182617 C31.6527243 8.80848862 31.87185486 9.49515106 32.09762573 10.20262146 C32.79748962 12.40136128 33.48672584 14.60327173 34.17578125 16.80541992 C34.64774255 18.29457265 35.12039009 19.78350806 35.59375 21.2722168 C36.75407867 24.92664168 37.90488539 28.58394501 39.05078125 32.24291992 C42.49119993 24.77640593 45.39377901 17.15789815 48.2265625 9.4440918 C48.56300781 8.54368164 48.89945312 7.64327148 49.24609375 6.71557617 C49.54531738 5.90354736 49.84454102 5.09151855 50.15283203 4.25488281 C51.05078125 2.24291992 51.05078125 2.24291992 53.05078125 0.24291992 C56.10766602 0 56.10766602 0 59.9921875 0.01245117 C61.01650124 0.0131385 61.01650124 0.0131385 62.06150818 0.01383972 C63.50480894 0.01686101 64.94810647 0.0247437 66.39135742 0.03710938 C68.60802678 0.05537662 70.82427883 0.057619 73.04101562 0.05737305 C83.90335657 0.09549524 83.90335657 0.09549524 85.05078125 1.24291992 C86.20844893 10.53527033 82.33579572 18.56478159 79.05078125 27.05541992 C78.10102832 29.55724774 77.15635658 32.06096009 76.21173096 34.56472778 C75.54579879 36.32847205 74.87808011 38.0915427 74.2086792 39.85397339 C71.61373847 46.69777563 69.1050645 53.5701738 66.62890625 60.45776367 C66.26631714 61.46478836 65.90372803 62.47181305 65.53015137 63.50935364 C64.09762862 67.48992865 62.66611607 71.47083974 61.2421875 75.45449829 C60.25114531 78.22436186 59.25322208 80.99165766 58.25390625 83.75854492 C57.95865051 84.59010605 57.66339478 85.42166718 57.35919189 86.27842712 C55.27821826 92.01548291 55.27821826 92.01548291 53.05078125 94.24291992 C48.79335987 94.64155488 44.52130551 94.57194534 40.24731445 94.55859375 C38.12463919 94.55543681 36.00336189 94.57887753 33.88085938 94.60424805 C32.53255384 94.60652138 31.18424456 94.60722438 29.8359375 94.60620117 C28.6075415 94.60918213 27.37914551 94.61216309 26.11352539 94.61523438 C23.05078125 94.24291992 23.05078125 94.24291992 21.28173828 93.14868164 C19.48938355 90.37376672 18.59042955 87.52729196 17.5703125 84.38745117 C17.35259689 83.72581467 17.13488129 83.06417816 16.91056824 82.38249207 C16.21961408 80.27614143 15.54131721 78.16596007 14.86328125 76.05541992 C14.39601222 74.6235082 13.92792246 73.19186403 13.45898438 71.76049805 C12.3133896 68.25768892 11.17910776 64.75133491 10.05078125 61.24291992 C9.73326904 62.13599854 9.41575684 63.02907715 9.08862305 63.94921875 C7.90446577 67.26714838 6.71276526 70.58216291 5.51586914 73.89550781 C4.99980409 75.32898583 4.48675335 76.7635528 3.97680664 78.19921875 C3.24247957 80.26491583 2.49733346 82.32642956 1.75 84.38745117 C1.30487061 85.62857666 0.85974121 86.86970215 0.40112305 88.1484375 C-1.62144414 92.78341111 -1.62144414 92.78341111 -3.94921875 94.24291992 C-6.92016602 94.59936523 -6.92016602 94.59936523 -10.515625 94.57104492 C-11.80533203 94.56588867 -13.09503906 94.56073242 -14.42382812 94.55541992 C-15.09438232 94.54510742 -15.76493652 94.53479492 -16.45581055 94.52416992 C-18.5078346 94.49297896 -20.55909036 94.48319428 -22.61132812 94.47729492 C-32.64102416 94.39701721 -32.64102416 94.39701721 -34.94921875 93.24291992 C-35.59358747 84.92167562 -33.3087081 78.50288236 -30.41796875 70.75854492 C-29.94267319 69.45452348 -29.46861834 68.15004923 -28.99572754 66.84515381 C-27.74901202 63.41587654 -26.4849212 59.99326017 -25.21716309 56.57171631 C-23.95784755 53.16279659 -22.71624855 49.74744298 -21.47265625 46.33276367 C-18.66112469 38.62505631 -15.81024473 30.93238691 -12.94921875 23.24291992 C-12.53623535 22.12812256 -12.12325195 21.0133252 -11.69775391 19.86474609 C-10.59002407 16.8790001 -9.47456918 13.89629453 -8.35546875 10.91479492 C-8.0349353 10.05009583 -7.71440186 9.18539673 -7.38415527 8.29449463 C-4.38049132 0.36081034 -4.38049132 0.36081034 0 0 Z " fill="#000000" transform="translate(447.94921875,40.757080078125)"/>
<path d="M0 0 C0.88471985 -0.01606293 1.7694397 -0.03212585 2.68096924 -0.04867554 C6.74124523 -0.09302579 10.8013548 -0.13420878 14.86181641 -0.15722656 C17.0035286 -0.17377365 19.14518586 -0.20104706 21.28662109 -0.23925781 C24.37073489 -0.29403358 27.45355115 -0.31590386 30.53808594 -0.33056641 C31.49346252 -0.35323578 32.44883911 -0.37590515 33.4331665 -0.39926147 C37.91583443 -0.38502392 40.21263949 -0.21382725 44.04101562 2.28808594 C45.83496094 5.19287109 45.83496094 5.19287109 45.88598633 8.33374023 C44.52869316 13.31741809 42.84416855 18.10940983 41.01855469 22.93896484 C40.64263687 23.95007828 40.26671906 24.96119171 39.87940979 26.00294495 C38.68365653 29.21458062 37.47821658 32.42247902 36.27246094 35.63037109 C35.45736462 37.81437595 34.64290444 39.99861832 33.82910156 42.18310547 C31.83841329 47.52246671 29.83977103 52.85879736 27.83496094 58.19287109 C31.1047767 56.56730912 34.32671625 54.86958509 37.54199219 53.13818359 C39.2404126 52.22516479 39.2404126 52.22516479 40.97314453 51.29370117 C41.57181335 50.9717276 42.17048218 50.64975403 42.78729248 50.31802368 C52.39646028 45.15148406 62.02398277 40.02695014 71.70996094 35.00537109 C79.9205074 30.74430002 88.06472729 26.37636983 96.17358398 21.92504883 C101.54550321 18.97884701 106.93156154 16.06128101 112.33496094 13.17333984 C113.29255058 12.66147377 113.29255058 12.66147377 114.26948547 12.13926697 C117.42307599 10.4544249 120.5779827 8.77208652 123.73413086 7.09204102 C124.87470947 6.48336182 126.01528809 5.87468262 127.19042969 5.24755859 C128.2077417 4.70599121 129.22505371 4.16442383 130.27319336 3.60644531 C132.95535331 2.17304741 132.95535331 2.17304741 135.83496094 0.19287109 C138.83764648 -0.03417969 138.83764648 -0.03417969 142.47167969 -0.00244141 C143.77041016 0.00400391 145.06914062 0.01044922 146.40722656 0.01708984 C147.77897401 0.03380049 149.1507188 0.05073038 150.52246094 0.06787109 C151.90591812 0.07790435 153.28938221 0.0870296 154.67285156 0.09521484 C158.06039546 0.11882142 161.44759166 0.15175073 164.83496094 0.19287109 C162.51562004 2.75957073 160.15026634 4.25915297 157.10058594 5.87255859 C156.14643799 6.38214111 155.19229004 6.89172363 154.20922852 7.41674805 C152.66271606 8.23405396 152.66271606 8.23405396 151.08496094 9.06787109 C142.88365531 13.45390157 134.72927166 17.90275123 126.64746094 22.50537109 C117.99531685 27.4246303 109.30388299 32.26835215 100.58496094 37.06787109 C99.9734317 37.40452789 99.36190247 37.74118469 98.73184204 38.08804321 C98.11916473 38.4253244 97.50648743 38.76260559 96.87524414 39.11010742 C95.63784832 39.79132344 94.40046225 40.47255715 93.16308594 41.15380859 C92.55063522 41.49097397 91.93818451 41.82813934 91.30717468 42.17552185 C84.97353818 45.66409958 78.65370769 49.1774075 72.33496094 52.69287109 C63.01200699 57.87850829 53.67791539 63.04340106 44.33496094 68.19287109 C32.72272953 74.59355287 21.12552788 81.02082583 9.53808594 87.46630859 C4.98853621 89.99694566 0.43624817 92.52255844 -4.11816406 95.04443359 C-17.86046252 102.65771902 -31.55129286 110.35183212 -45.16503906 118.19287109 C-46.55201286 114.03194971 -44.99948214 111.23923412 -43.52441406 107.30615234 C-43.24156555 106.53031296 -42.95871704 105.75447357 -42.66729736 104.9551239 C-41.75846473 102.46862584 -40.83692437 99.98705556 -39.91503906 97.50537109 C-39.30873494 95.85268253 -38.70325662 94.19969075 -38.09863281 92.54638672 C-35.02561479 84.15943771 -31.91881175 75.78468553 -28.73535156 67.43896484 C-26.21681805 60.81369558 -23.79838729 54.18280902 -21.60253906 47.44287109 C-19.76241074 41.81598354 -17.62786853 36.4095746 -15.29003906 30.97412109 C-13.89119066 27.51585698 -12.85952439 24.00933889 -11.84472656 20.42333984 C-10.87412561 17.23820682 -9.47593303 14.25162369 -8.16503906 11.19287109 C-7.33674095 8.5502057 -6.56257164 5.89806769 -5.81347656 3.23193359 C-4.6926147 -0.29270432 -3.48525201 0.05730817 0 0 Z " fill="#D2000E" transform="translate(62.1650390625,19.80712890625)"/>
<path d="M0 0 C3.15361867 3.39014007 4.21787779 5.8377372 4.25 10.375 C4.1675 11.57125 4.085 12.7675 4 14 C0.91190305 15.76462683 -0.23312136 16 -4 16 C-4 16.66 -4 17.32 -4 18 C-3.01 18.33 -2.02 18.66 -1 19 C1.87295376 23.32384345 1.49132499 28.00750412 1 33 C-0.78386913 38.45654088 -4.19211572 42.00391035 -9 45 C-19.6831261 49.6914386 -32.4551327 49.47917291 -43.33984375 45.65625 C-43.88769531 45.4396875 -44.43554688 45.223125 -45 45 C-45.99 45.99 -45.99 45.99 -47 47 C-49.63223267 47.24050903 -49.63223267 47.24050903 -53.01025391 47.22705078 C-54.90198837 47.22682419 -54.90198837 47.22682419 -56.8319397 47.22659302 C-58.21348222 47.21637898 -59.59502315 47.20594697 -60.9765625 47.1953125 C-62.38617757 47.19158288 -63.79579523 47.18873567 -65.20541382 47.18673706 C-68.91759382 47.17909655 -72.62961761 47.15944461 -76.34173584 47.1373291 C-80.12884406 47.11687959 -83.9159775 47.10773727 -87.703125 47.09765625 C-95.13548793 47.076199 -102.56772208 47.04205816 -110 47 C-111.485 42.05 -111.485 42.05 -113 37 C-114.98 41.95 -114.98 41.95 -117 47 C-120.14588944 47.02683697 -123.29155271 47.04675902 -126.4375 47.0625 C-127.33533203 47.07087891 -128.23316406 47.07925781 -129.15820312 47.08789062 C-130.43920898 47.09272461 -130.43920898 47.09272461 -131.74609375 47.09765625 C-132.53685303 47.10289307 -133.3276123 47.10812988 -134.14233398 47.11352539 C-136 47 -136 47 -137 46 C-137.80984562 36.77520683 -135.45725722 28.36168407 -133.2097168 19.49243164 C-132.55682853 16.91511151 -131.92062212 14.33409739 -131.28710938 11.75195312 C-130.88115457 10.11434848 -130.47428727 8.4769697 -130.06640625 6.83984375 C-129.87470352 6.06704575 -129.68300079 5.29424774 -129.48548889 4.49803162 C-128.11751923 -0.88248077 -128.11751923 -0.88248077 -127 -2 C-124.48822193 -2.13827176 -122.00593362 -2.2131359 -119.4921875 -2.23828125 C-118.73334259 -2.246353 -117.97449768 -2.25442474 -117.19265747 -2.26274109 C-115.58028459 -2.27660254 -113.9678821 -2.28731543 -112.35546875 -2.29516602 C-109.90566851 -2.31228568 -107.45725091 -2.35613856 -105.0078125 -2.40039062 C-103.44011408 -2.4105257 -101.87240418 -2.41903925 -100.3046875 -2.42578125 C-99.57837128 -2.44328934 -98.85205505 -2.46079742 -98.10372925 -2.47883606 C-92.65429398 -2.45596177 -89.50931047 -1.07304575 -85 2 C-83.0625 4.25 -83.0625 4.25 -82 6 C-81.01 3.36 -80.02 0.72 -79 -2 C-65.14 -2 -51.28 -2 -37 -2 C-36.505 -0.515 -36.505 -0.515 -36 1 C-35.10474609 0.566875 -35.10474609 0.566875 -34.19140625 0.125 C-24.05823364 -4.21133538 -9.85993686 -5.79996286 0 0 Z M-108 13 C-108.33 13.66 -108.66 14.32 -109 15 C-108.01 14.67 -107.02 14.34 -106 14 C-106.66 13.67 -107.32 13.34 -108 13 Z M-61 13 C-61 13.33 -61 13.66 -61 14 C-56.05 14.33 -51.1 14.66 -46 15 C-46 19.29 -46 23.58 -46 28 C-43.69 27.34 -41.38 26.68 -39 26 C-39.474375 25.34 -39.94875 24.68 -40.4375 24 C-42 21 -42 21 -43 13 C-48.94 13 -54.88 13 -61 13 Z M-87 23 C-88.65 24.32 -90.3 25.64 -92 27 C-91.34 29.97 -90.68 32.94 -90 36 C-89.34 35.67 -88.68 35.34 -88 35 C-86.07548192 29.02831677 -86.07548192 29.02831677 -87 23 Z M-65 30 C-65 30.33 -65 30.66 -65 31 C-59.72 31 -54.44 31 -49 31 C-49 30.67 -49 30.34 -49 30 C-54.28 30 -59.56 30 -65 30 Z " fill="#000000" transform="translate(684,140)"/>
<path d="M0 0 C7.17150787 -0.10146163 14.34283049 -0.17149156 21.51489258 -0.21972656 C23.95441607 -0.23983564 26.3938914 -0.26712683 28.83325195 -0.30175781 C32.34077848 -0.35030489 35.84766743 -0.37297632 39.35546875 -0.390625 C40.44522507 -0.41127014 41.53498138 -0.43191528 42.65776062 -0.45318604 C50.21523657 -0.45542307 50.21523657 -0.45542307 54.1652832 1.83691406 C57.07707056 5.26983968 57.27259473 8.37582295 57.2097168 12.7878418 C56.84482507 16.63683356 55.52554735 20.06317807 54.15625 23.65625 C53.86770142 24.44398804 53.57915283 25.23172607 53.28186035 26.04333496 C52.36658435 28.53352417 51.43366455 31.01665475 50.5 33.5 C49.87251549 35.19748004 49.24620155 36.89539328 48.62109375 38.59375 C47.09421643 42.73429781 45.55149105 46.86861548 44 51 C47.41763442 50.32095037 50.11209885 48.99582261 53.1640625 47.33203125 C54.19015625 46.77580078 55.21625 46.21957031 56.2734375 45.64648438 C57.37945312 45.04126953 58.48546875 44.43605469 59.625 43.8125 C61.38832791 42.85506805 63.15165941 41.89764262 64.91522217 40.94064331 C66.74271593 39.94825945 68.56917634 38.95399365 70.39550781 37.95947266 C75.9198135 34.9534644 81.46070908 31.9782725 87 29 C89.15242768 27.84130173 91.30477101 26.68244676 93.45703125 25.5234375 C94.52775879 24.9469043 95.59848633 24.37037109 96.70166016 23.77636719 C100.09695807 21.94778187 103.49187581 20.11849233 106.88671875 18.2890625 C108.02560547 17.67546875 109.16449219 17.061875 110.33789062 16.4296875 C112.47865323 15.27629703 114.61929067 14.1226742 116.75976562 12.96875 C118.77252659 11.88445196 120.79061735 10.8099936 122.8137207 9.74511719 C125.09911686 8.49341144 127.27605362 7.21320955 129.47338867 5.82519531 C139.39887057 -0.256685 147.45998812 -1.02120221 158.9375 -0.5 C160.50706839 -0.45973384 162.0767387 -0.42325665 163.64648438 -0.390625 C167.43358242 -0.30385451 171.21561033 -0.16664261 175 0 C175.75 3.25 175.75 3.25 176 7 C173.64830264 10.25530522 170.68347753 11.92784076 167.16796875 13.77734375 C166.21631836 14.28410645 165.26466797 14.79086914 164.28417969 15.31298828 C163.26227539 15.84907715 162.24037109 16.38516602 161.1875 16.9375 C159.0081429 18.09843818 156.82978151 19.26124718 154.65234375 20.42578125 C153.54358887 21.0182666 152.43483398 21.61075195 151.29248047 22.22119141 C146.23803648 24.95192542 141.24228189 27.7826353 136.25 30.625 C125.88746335 36.51658188 115.46126835 42.28580346 105 48 C106.24394531 47.98195312 107.48789063 47.96390625 108.76953125 47.9453125 C113.23515159 47.8805263 116.15249447 48.53178891 120 51 C125.65822638 59.42352498 128.5749391 70.16082644 132.0625 79.625 C133.05255982 82.29777605 134.04394766 84.97005689 135.03547668 87.64228821 C135.70511626 89.44743679 136.37405028 91.25284727 137.0422821 93.05851746 C139.20274992 98.88750846 141.40918772 104.6969622 143.6484375 110.49609375 C144.48118408 112.66542335 145.31309054 114.83507324 146.14474487 117.00482178 C146.6685693 118.36446245 147.19627376 119.72261534 147.72805786 121.0791626 C148.46329073 122.95625945 149.18316564 124.8393499 149.90234375 126.72265625 C150.30960693 127.77203369 150.71687012 128.82141113 151.13647461 129.90258789 C152.11277137 133.40450394 152.22101867 136.38092387 152 140 C151 141 151 141 148.63987732 141.12025452 C147.59396927 141.11803391 146.54806122 141.11581329 145.47045898 141.11352539 C144.28931015 141.11344986 143.10816132 141.11337433 141.89122009 141.11329651 C140.6058284 141.10813522 139.32043671 141.10297394 137.99609375 141.09765625 C136.0338662 141.09553383 136.0338662 141.09553383 134.03199768 141.09336853 C130.54837141 141.0895441 127.06478661 141.07971446 123.58117676 141.06866455 C120.02873292 141.05844882 116.47628241 141.05387056 112.92382812 141.04882812 C105.94920168 141.03809212 98.97460283 141.0210166 92 141 C89.26061885 135.01810078 86.79649635 128.99021336 84.546875 122.80859375 C84.24179016 121.97787857 83.93670532 121.14716339 83.62237549 120.29127502 C82.66204722 117.67439128 81.70595117 115.05598544 80.75 112.4375 C80.09403102 110.64768344 79.43778348 108.85796894 78.78125 107.06835938 C77.18428203 102.71341115 75.59110398 98.3570939 74 94 C64.62315565 98.6416345 55.30729253 103.35597541 46.125 108.375 C45.09528076 108.93533936 44.06556152 109.49567871 43.00463867 110.07299805 C37.78754529 112.91651059 32.57650347 115.77086106 27.38623047 118.66308594 C25.99032332 119.43680043 24.58946224 120.20163664 23.18408203 120.95800781 C18.51494394 123.49475945 14.07311546 126.24886934 9.63671875 129.17578125 C-8.92072466 141.08029705 -25.04268374 143.90793391 -47 141 C-48 140 -48 140 -48.625 136.8125 C-48 133 -48 133 -46.0625 131.23828125 C-43.12699299 129.29538959 -40.14729842 127.57364921 -37 126 C-38.98 125.34 -40.96 124.68 -43 124 C-43.75909111 116.71896266 -41.02442692 110.61088621 -38.53125 103.86328125 C-38.05793126 102.55774565 -37.58560782 101.25184884 -37.11421204 99.94561768 C-35.85036184 96.45209352 -34.57295101 92.96367577 -33.29272842 89.47612381 C-31.96824677 85.86116569 -30.65596193 82.24178659 -29.3425293 78.62280273 C-27.23392663 72.81715437 -25.11826765 67.01412687 -22.99755859 61.21289062 C-20.32998784 53.91425001 -17.68567485 46.60738028 -15.05078125 39.296875 C-13.9735662 36.31302904 -12.8958734 33.3293563 -11.81787109 30.34579468 C-11.15402209 28.50797837 -10.49076164 26.66994934 -9.828125 24.83169556 C-8.91609445 22.30454277 -7.99971454 19.77901093 -7.08203125 17.25390625 C-6.82569412 16.54107483 -6.56935699 15.82824341 -6.30525208 15.09381104 C-4.43082115 9.95587804 -2.27180776 4.97412089 0 0 Z M3 4 C1.28772928 7.94937205 -0.34065334 11.79007535 -1.5 15.9375 C-2.56011123 19.5823154 -3.74870482 23.12822511 -5.1171875 26.671875 C-6.29023861 29.76540802 -7.39229256 32.88250003 -8.5 36 C-10.05293384 40.36212162 -11.62488524 44.71323884 -13.265625 49.04296875 C-14.1333491 51.35536116 -14.97287187 53.67725826 -15.8125 56 C-17.47150082 60.57329123 -19.1650872 65.13304396 -20.875 69.6875 C-21.13216797 70.37271729 -21.38933594 71.05793457 -21.65429688 71.76391602 C-22.8993869 75.07862062 -24.14836017 78.39177004 -25.40234375 81.703125 C-26.63635532 84.97103376 -27.86148477 88.24184292 -29.07714844 91.51660156 C-29.76818687 93.37618965 -30.46200589 95.23474486 -31.15722656 97.09277344 C-32.42707785 100.49581701 -33.68336636 103.90363608 -34.9375 107.3125 C-35.35169189 108.417146 -35.76588379 109.52179199 -36.19262695 110.65991211 C-36.5712085 111.69639893 -36.94979004 112.73288574 -37.33984375 113.80078125 C-37.68394287 114.73059814 -38.02804199 115.66041504 -38.38256836 116.6184082 C-39.26193558 119.12116849 -39.26193558 119.12116849 -38 122 C-37.07610474 121.48167603 -37.07610474 121.48167603 -36.13354492 120.95288086 C-20.57571178 112.22692218 -4.99573538 103.54196986 10.6015625 94.88671875 C13.96439804 93.01976523 17.3261401 91.15085885 20.6875 89.28125 C32.88948917 82.4953316 45.10303342 75.73098548 57.33044434 68.99102783 C69.45448871 62.30746729 81.5584569 55.58809706 93.65722656 48.85888672 C98.14476409 46.36340682 102.63335918 43.86983299 107.12207031 41.37646484 C109.36893784 40.12831337 111.61568321 38.87994196 113.86230469 37.63134766 C119.55967308 34.46513234 125.25874127 31.30204461 130.9609375 28.14453125 C144.70037785 20.53209949 158.38877669 12.83958587 172 5 C172 4.67 172 4.34 172 4 C152.9792018 2.43400648 140.28440739 3.51453981 124.01611328 14.1171875 C118.82063729 17.36046991 113.38013166 20.14045819 107.95465088 22.97592163 C104.71751366 24.67191872 101.49363911 26.39267957 98.26953125 28.11328125 C97.64471863 28.44628738 97.01990601 28.77929352 96.37615967 29.12239075 C89.91651735 32.56936552 83.49883214 36.09157103 77.08325195 39.61962891 C68.98694277 44.05146796 60.79072598 48.28654564 52.55932617 52.46166992 C46.41891785 55.6099663 40.64305751 59.0257169 35 63 C36.11955265 59.72727887 37.24633647 56.4570897 38.375 53.1875 C38.72425537 52.17244385 39.07351074 51.1573877 39.43334961 50.11157227 C41.46297682 44.26126163 43.57135309 38.45221109 45.79296875 32.671875 C46.48350342 30.86360229 46.48350342 30.86360229 47.18798828 29.01879883 C48.09236266 26.66244576 49.00840784 24.31053328 49.93701172 21.96362305 C50.35096191 20.88121338 50.76491211 19.79880371 51.19140625 18.68359375 C51.75130249 17.25358032 51.75130249 17.25358032 52.32250977 15.79467773 C53.13932789 12.42526618 53.00968336 10.3135323 52 7 C49.16376462 4.34293472 47.26752905 3.62695902 43.41503906 3.65942383 C42.51440735 3.65965042 41.61377563 3.65987701 40.68585205 3.66011047 C39.72217712 3.67559433 38.7585022 3.69107819 37.765625 3.70703125 C36.27588165 3.71339851 36.27588165 3.71339851 34.75604248 3.71989441 C31.58708472 3.73667366 28.41876522 3.774325 25.25 3.8125 C23.10026961 3.82754779 20.95052924 3.84123603 18.80078125 3.85351562 C13.53363677 3.88657464 8.26686399 3.93676666 3 4 Z M93.75 58.5 C91.70691929 59.70384499 89.66258838 60.90557009 87.6171875 62.10546875 C86.54178711 62.74274902 85.46638672 63.3800293 84.35839844 64.03662109 C79.19009535 67.05810215 73.9458163 69.93767495 68.69610596 72.8142395 C66.2395432 74.16083307 63.78591549 75.51273197 61.3321228 76.86436462 C59.46521874 77.89256985 57.59789622 78.92001136 55.73046875 79.94726562 C49.60963776 83.31476227 43.49211658 86.68826199 37.375 90.0625 C36.77486084 90.39350708 36.17472168 90.72451416 35.55639648 91.06555176 C20.54711149 99.34497116 5.56552977 107.67422854 -9.41116333 116.01243591 C-11.8201259 117.35340747 -14.22946573 118.69370031 -16.63885498 120.03390503 C-18.30339758 120.96015613 -19.96738521 121.88740435 -21.63134766 122.81469727 C-29.05277911 126.94290455 -36.5136634 130.99104009 -44 135 C-44 135.66 -44 136.32 -44 137 C-39.9615943 137.0744389 -35.92345707 137.12873729 -31.88452148 137.16479492 C-30.51205483 137.17983432 -29.13963586 137.20027133 -27.76733398 137.22631836 C-25.78911344 137.26291221 -23.81053486 137.27816698 -21.83203125 137.29296875 C-20.64327393 137.3086792 -19.4545166 137.32438965 -18.22973633 137.34057617 C-14.634768 136.96148623 -12.94159096 136.03736768 -10 134 C-8.36249019 133.09632856 -6.71896775 132.2034865 -5.0703125 131.3203125 C-4.1225293 130.81064941 -3.17474609 130.30098633 -2.19824219 129.77587891 C-1.18407227 129.23108887 -0.16990234 128.68629883 0.875 128.125 C9.05410305 123.71639668 17.17909796 119.22849836 25.25 114.625 C33.99692859 109.64541503 42.8160779 104.81540685 51.6875 100.0625 C52.8331543 99.44777832 53.97880859 98.83305664 55.15917969 98.19970703 C62.38080687 94.34487691 69.65886824 90.62195737 77 87 C77.34804687 88.2478125 77.69609375 89.495625 78.0546875 90.78125 C80.40162793 98.60254618 83.31310825 106.22748343 86.15283203 113.87988281 C87.13252426 116.52027886 88.10763281 119.16233382 89.08203125 121.8046875 C89.70286211 123.48447219 90.32394654 125.16416318 90.9453125 126.84375 C91.23697296 127.6332605 91.52863342 128.422771 91.82913208 129.23620605 C93.27481986 133.17729358 93.27481986 133.17729358 95 137 C112.49 137 129.98 137 148 137 C145.72765814 129.28306219 145.72765814 129.28306219 143.09765625 121.74609375 C142.76443359 120.87146484 142.43121094 119.99683594 142.08789062 119.09570312 C141.74951172 118.21849609 141.41113281 117.34128906 141.0625 116.4375 C140.72798828 115.55642578 140.39347656 114.67535156 140.04882812 113.76757812 C138.41709806 109.50747361 136.71595755 105.30542318 134.8359375 101.1484375 C133.50215462 98.19429262 132.38377797 95.33101224 131.5625 92.1875 C130.17355975 87.30356336 128.2588433 82.74702121 126.2578125 78.0859375 C125.00281209 75.00689924 123.9503448 71.91613691 122.9375 68.75 C120.54784551 60.25935191 120.54784551 60.25935191 115.13183594 53.81835938 C106.9602466 50.68148724 100.7026115 54.233261 93.75 58.5 Z " fill="#040000" transform="translate(55,16)"/>
<path d="M0 0 C20.13 0 40.26 0 61 0 C61.85889069 5.15334415 62.06640317 6.99339841 60.92578125 11.7109375 C60.67207764 12.7841626 60.41837402 13.8573877 60.15698242 14.96313477 C59.73896362 16.65200806 59.73896362 16.65200806 59.3125 18.375 C59.03575439 19.52863037 58.75900879 20.68226074 58.47387695 21.87084961 C57.66009812 25.24998058 56.83101942 28.62507502 56 32 C55.57983714 33.74327483 55.16046193 35.48673985 54.7421875 37.23046875 C52.16954129 47.83045871 52.16954129 47.83045871 51 49 C49.59651265 49.09860131 48.18819523 49.13078937 46.78125 49.1328125 C45.50701172 49.13474609 45.50701172 49.13474609 44.20703125 49.13671875 C42.86705078 49.13091797 42.86705078 49.13091797 41.5 49.125 C40.60667969 49.12886719 39.71335937 49.13273437 38.79296875 49.13671875 C37.94347656 49.13542969 37.09398437 49.13414062 36.21875 49.1328125 C35.43435547 49.13168457 34.64996094 49.13055664 33.84179688 49.12939453 C32 49 32 49 31 48 C30.28099462 40.66046881 31.6640375 33.94097461 33.5 26.875 C33.73847656 25.91851562 33.97695313 24.96203125 34.22265625 23.9765625 C34.80474499 21.64820754 35.39726878 19.32308002 36 17 C34.02 16.67 32.04 16.34 30 16 C29.896875 17.06347656 29.79375 18.12695312 29.6875 19.22265625 C28.95487862 25.07459847 27.45335009 30.73035871 26 36.4375 C25.72671875 37.53771484 25.4534375 38.63792969 25.171875 39.77148438 C23.13132225 47.86867775 23.13132225 47.86867775 22 49 C20.59651265 49.09860131 19.18819523 49.13078937 17.78125 49.1328125 C16.50701172 49.13474609 16.50701172 49.13474609 15.20703125 49.13671875 C13.86705078 49.13091797 13.86705078 49.13091797 12.5 49.125 C11.60667969 49.12886719 10.71335937 49.13273437 9.79296875 49.13671875 C8.94347656 49.13542969 8.09398437 49.13414062 7.21875 49.1328125 C6.43435547 49.13168457 5.64996094 49.13055664 4.84179688 49.12939453 C3 49 3 49 2 48 C1.28099462 40.66046881 2.6640375 33.94097461 4.5 26.875 C4.85771484 25.44027344 4.85771484 25.44027344 5.22265625 23.9765625 C5.80474499 21.64820754 6.39726878 19.32308002 7 17 C5.700625 16.855625 4.40125 16.71125 3.0625 16.5625 C-0.875 16.125 -0.875 16.125 -2 15 C-2.16796875 13.14453125 -2.16796875 13.14453125 -2.1875 10.8125 C-2.20167969 10.05582031 -2.21585937 9.29914063 -2.23046875 8.51953125 C-2 6 -2 6 0 0 Z " fill="#000000" transform="translate(492,138)"/>
<path d="M0 0 C4.02009457 -0.07455949 8.03991733 -0.12879358 12.06054688 -0.16479492 C13.42617816 -0.17981428 14.79176176 -0.20023608 16.15722656 -0.22631836 C18.12803905 -0.26300137 20.09921408 -0.27818551 22.0703125 -0.29296875 C23.25383301 -0.3086792 24.43735352 -0.32438965 25.65673828 -0.34057617 C29.96783013 0.09859231 33.57053757 1.32193541 36.4375 4.6875 C37.47168421 8.93914619 37.16995704 13.00932683 34.953125 16.78125 C32.68241672 19.64066043 30.43853752 21.72646759 27 23 C27.64924281 26.75194003 28.70904363 30.1316451 30.0625 33.6875 C32 38.78291815 32 38.78291815 32 41 C27.05 41 22.1 41 17 41 C14 29.5 14 29.5 14 25 C11.69 25 9.38 25 7 25 C6.95101562 25.56847656 6.90203125 26.13695312 6.8515625 26.72265625 C6.36856919 31.71081129 5.52361837 36.22599578 4 41 C-0.62 41 -5.24 41 -10 41 C-8.7383261 35.64273268 -7.4748565 30.28589328 -6.2097168 24.92944336 C-5.7795343 23.10696898 -5.34984378 21.28437841 -4.9206543 19.46166992 C-4.30386416 16.84262926 -3.68530924 14.22401082 -3.06640625 11.60546875 C-2.87470352 10.78974899 -2.68300079 9.97402924 -2.48548889 9.1335907 C-1.75384328 6.04404534 -1.00460468 3.01381403 0 0 Z M16 11 C15.67 11.66 15.34 12.32 15 13 C15.99 12.67 16.98 12.34 18 12 C17.34 11.67 16.68 11.34 16 11 Z " fill="#191919" transform="translate(560,142)"/>
<path d="M0 0 C3.3125 2.1875 3.3125 2.1875 5.3125 5.1875 C5.3125 6.1775 5.3125 7.1675 5.3125 8.1875 C1.3525 9.1775 -2.6075 10.1675 -6.6875 11.1875 C-7.1825 9.2075 -7.1825 9.2075 -7.6875 7.1875 C-9.14573212 7.1604957 -10.60410675 7.14110213 -12.0625 7.125 C-13.28066406 7.10759766 -13.28066406 7.10759766 -14.5234375 7.08984375 C-16.73687142 7.04283666 -16.73687142 7.04283666 -18.6875 8.1875 C-19.33963292 10.21213255 -19.33963292 10.21213255 -19.6875 12.1875 C-18.9140625 12.35765625 -18.140625 12.5278125 -17.34375 12.703125 C-1.44192734 16.40305404 -1.44192734 16.40305404 1.5234375 21.109375 C2.8118314 24.50257082 2.25445778 26.71403067 1.3125 30.1875 C-1.99095921 35.58610616 -5.7494926 38.24415212 -11.6875 40.1875 C-19.06087619 41.90392528 -26.96409076 42.28794341 -34.02734375 39.2421875 C-36.86635071 37.43858308 -38.21098491 35.14053018 -39.6875 32.1875 C-39.6875 31.1975 -39.6875 30.2075 -39.6875 29.1875 C-35.5678623 27.89506464 -32.01918317 26.92497375 -27.6875 27.1875 C-27.39875 27.826875 -27.11 28.46625 -26.8125 29.125 C-25.85926549 31.33956079 -25.85926549 31.33956079 -23.6875 32.1875 C-19.44778942 32.42303948 -16.32571698 32.51595886 -12.6875 30.1875 C-12.61910747 28.22650638 -12.61910747 28.22650638 -13.6875 26.1875 C-16.76318844 24.9647263 -19.76581506 24.11050079 -22.96484375 23.296875 C-28.26821759 21.7756715 -30.6212751 19.81643412 -33.6875 15.1875 C-33.84201895 10.86096929 -32.99187798 8.68825087 -30.75 5 C-23.30249427 -2.91430096 -9.61235497 -4.51833019 0 0 Z " fill="#191919" transform="translate(678.6875,142.8125)"/>
<path d="M0 0 C11.88 0 23.76 0 36 0 C35.67 2.31 35.34 4.62 35 7 C27.41 7.33 19.82 7.66 12 8 C11.34 10.64 10.68 13.28 10 16 C15.61 16 21.22 16 27 16 C26.67 18.64 26.34 21.28 26 24 C19.73 24 13.46 24 7 24 C6.67 26.97 6.34 29.94 6 33 C13.26 33 20.52 33 28 33 C27 40 27 40 26 41 C23.3337397 41.08855161 20.69352886 41.11524673 18.02734375 41.09765625 C17.22970108 41.0962413 16.43205841 41.09482635 15.61024475 41.09336853 C13.05262565 41.08775316 10.49509282 41.07519812 7.9375 41.0625 C6.20768355 41.05748698 4.47786574 41.05292373 2.74804688 41.04882812 C-1.50133553 41.03777875 -5.75065312 41.02050386 -10 41 C-7.84027986 31.15001694 -5.63196833 21.31378854 -3.3125 11.5 C-2.99116089 10.12968628 -2.99116089 10.12968628 -2.66333008 8.73168945 C-2.36011841 7.45684692 -2.36011841 7.45684692 -2.05078125 6.15625 C-1.87200439 5.40150391 -1.69322754 4.64675781 -1.5090332 3.86914062 C-1 2 -1 2 0 0 Z " fill="#191919" transform="translate(608,142)"/>
<path d="M0 0 C12.21 0 24.42 0 37 0 C36.67 2.64 36.34 5.28 36 8 C30.06 8.495 30.06 8.495 24 9 C21.36 19.56 18.72 30.12 16 41 C11.38 41 6.76 41 2 41 C4.64 30.11 7.28 19.22 10 8 C6.37 8 2.74 8 -1 8 C-0.67 5.36 -0.34 2.72 0 0 Z " fill="#191919" transform="translate(495,142)"/>
<path d="M0 0 C4.62 0 9.24 0 14 0 C12.7383261 5.35726732 11.4748565 10.71410672 10.2097168 16.07055664 C9.7795343 17.89303102 9.34984378 19.71562159 8.9206543 21.53833008 C8.30386416 24.15737074 7.68530924 26.77598918 7.06640625 29.39453125 C6.87470352 30.21025101 6.68300079 31.02597076 6.48548889 31.8664093 C5.75384328 34.95595466 5.00460468 37.98618597 4 41 C-0.62 41 -5.24 41 -10 41 C-8.7383261 35.64273268 -7.4748565 30.28589328 -6.2097168 24.92944336 C-5.7795343 23.10696898 -5.34984378 21.28437841 -4.9206543 19.46166992 C-4.30386416 16.84262926 -3.68530924 14.22401082 -3.06640625 11.60546875 C-2.87470352 10.78974899 -2.68300079 9.97402924 -2.48548889 9.1335907 C-1.75384328 6.04404534 -1.00460468 3.01381403 0 0 Z " fill="#191919" transform="translate(536,142)"/>
<path d="M0 0 C1.134375 0.020625 2.26875 0.04125 3.4375 0.0625 C4.0975 3.0325 4.7575 6.0025 5.4375 9.0625 C6.4275 6.0925 7.4175 3.1225 8.4375 0.0625 C10.4175 0.0625 12.3975 0.0625 14.4375 0.0625 C12.29156445 8.61134894 9.4880873 16.80300475 6.4375 25.0625 C4.1275 25.0625 1.8175 25.0625 -0.5625 25.0625 C-0.8925 20.7725 -1.2225 16.4825 -1.5625 12.0625 C-3.2125 16.3525 -4.8625 20.6425 -6.5625 25.0625 C-8.5425 25.0625 -10.5225 25.0625 -12.5625 25.0625 C-11.25483076 21.08172912 -9.94056177 17.10316885 -8.625 13.125 C-8.06522461 11.42053711 -8.06522461 11.42053711 -7.49414062 9.68164062 C-7.13642578 8.60205078 -6.77871094 7.52246094 -6.41015625 6.41015625 C-6.08023682 5.40992432 -5.75031738 4.40969238 -5.41040039 3.37915039 C-4.07815772 -0.26082967 -4.16722546 0.07310922 0 0 Z " fill="#BBBBBB" transform="translate(327.5625,149.9375)"/>
<path d="M0 0 C2.49504292 3.74256438 2.14145623 5.30393011 1.53515625 9.58984375 C0.37717543 14.80498364 -1.87342938 19.22830795 -5.6875 23 C-9.75377024 25.45510656 -13.32947202 26.12092671 -18 25 C-20 22 -20 22 -20 19 C-18.02 18.67 -16.04 18.34 -14 18 C-13.67 18.66 -13.34 19.32 -13 20 C-11.68 19.34 -10.36 18.68 -9 18 C-9 17.34 -9 16.68 -9 16 C-11.31 15.67 -13.62 15.34 -16 15 C-17.00505983 10.81225071 -17.33236484 8.69131887 -15.4375 4.75 C-10.77703304 -0.50796272 -6.84029061 -1.8416167 0 0 Z M-7 4 C-8.64555699 5.22809091 -8.64555699 5.22809091 -10 7 C-9.77242269 9.16299211 -9.77242269 9.16299211 -9 11 C-6.9837767 10.28436734 -6.9837767 10.28436734 -5 9 C-4.19471111 6.94999129 -4.19471111 6.94999129 -4 5 C-4.99 4.67 -5.98 4.34 -7 4 Z " fill="#BBBBBB" transform="translate(427,150)"/>
<path d="M0 0 C1 1 1 1 1.0625 4.0625 C1.041875 5.031875 1.02125 6.00125 1 7 C-0.98 7.33 -2.96 7.66 -5 8 C-5 6.68 -5 5.36 -5 4 C-6.99983534 4.79117904 -6.99983534 4.79117904 -9 6 C-9.33 6.99 -9.66 7.98 -10 9 C-8.576875 8.938125 -8.576875 8.938125 -7.125 8.875 C-4 9 -4 9 -2 11 C-1.55647925 14.29472554 -1.29665987 16.8234087 -3.05078125 19.7578125 C-4.8365506 21.93866356 -6.45952611 23.72976306 -9 25 C-10.49649362 25.12005453 -11.99874793 25.17531451 -13.5 25.1875 C-14.2940625 25.20167969 -15.088125 25.21585938 -15.90625 25.23046875 C-18 25 -18 25 -20 23 C-20.82646297 15.14860181 -18.34441075 9.5544292 -14.0625 3.0625 C-9.61304629 -1.38695371 -6.00129472 -1.26950465 0 0 Z M-10 13 C-12.08333079 14.74934898 -12.08333079 14.74934898 -14 17 C-14 18.32 -14 19.64 -14 21 C-12.03243548 20.96877057 -12.03243548 20.96877057 -10 20 C-8.6954344 17.00384054 -8.6954344 17.00384054 -8 14 C-8.66 13.67 -9.32 13.34 -10 13 Z " fill="#BBBBBB" transform="translate(449,150)"/>
<path d="M0 0 C2 2 2 2 2 6 C0.02 6.33 -1.96 6.66 -4 7 C-4 6.34 -4 5.68 -4 5 C-6.47266765 5.34444881 -6.47266765 5.34444881 -9 6 C-9.33 6.66 -9.66 7.32 -10 8 C-9.071875 8.268125 -8.14375 8.53625 -7.1875 8.8125 C-2.41176471 10.5916955 -2.41176471 10.5916955 -1 13 C-1 16.4375 -1 16.4375 -2 20 C-5.92132191 23.8207752 -8.61468964 25.14836257 -14 25.1875 C-15.3303125 25.20876953 -15.3303125 25.20876953 -16.6875 25.23046875 C-19 25 -19 25 -21 23 C-21.1875 20.4375 -21.1875 20.4375 -21 18 C-20 17 -20 17 -17.4375 16.9375 C-16.2309375 16.9684375 -16.2309375 16.9684375 -15 17 C-15 17.99 -15 18.98 -15 20 C-13.02 19.34 -11.04 18.68 -9 18 C-10.50349397 14.99301207 -13.0418948 14.41742541 -16 13 C-16.33 12.67 -16.66 12.34 -17 12 C-16.8345641 7.6986666 -16.414965 5.51590243 -13.6875 2.125 C-8.95023274 -1.6207462 -5.89060861 -1.19993879 0 0 Z " fill="#BBBBBB" transform="translate(306,150)"/>
<path d="M0 0 C0.66 0.66 1.32 1.32 2 2 C1.8862798 7.91345056 0.13669016 10.86330984 -4 15 C-6.8125 16.875 -6.8125 16.875 -9 18 C-7.02 18.33 -5.04 18.66 -3 19 C-3.875 23.875 -3.875 23.875 -5 25 C-6.34267413 25.08631874 -7.68974322 25.10706473 -9.03515625 25.09765625 C-9.84404297 25.09443359 -10.65292969 25.09121094 -11.48632812 25.08789062 C-12.33646484 25.07951172 -13.18660156 25.07113281 -14.0625 25.0625 C-14.91650391 25.05798828 -15.77050781 25.05347656 -16.65039062 25.04882812 C-18.76695663 25.03700373 -20.88348685 25.01906769 -23 25 C-21.07697406 19.56225436 -19.70015831 17.19914702 -14.5 14.3125 C-10.79881525 12.22809622 -8.31946733 10.59674158 -6 7 C-6.33 6.34 -6.66 5.68 -7 5 C-7.66 5 -8.32 5 -9 5 C-9.66 6.32 -10.32 7.64 -11 9 C-13.97 8.505 -13.97 8.505 -17 8 C-12.86749403 0.35486395 -8.57081148 -1.7141623 0 0 Z " fill="#BBBBBB" transform="translate(468,150)"/>
<path d="M0 0 C2.29404844 3.44107266 2.26293056 4.96839809 2 9 C1 10 1 10 -2.0625 10.0625 C-3.031875 10.041875 -4.00125 10.02125 -5 10 C-5.33 8.35 -5.66 6.7 -6 5 C-9.07759869 5.66405912 -9.07759869 5.66405912 -10.1328125 7.890625 C-12.62761875 13.77422995 -12.62761875 13.77422995 -14 20 C-10.34683329 18.75023244 -9.21934164 18.32901247 -7 15 C-5.02 15.33 -3.04 15.66 -1 16 C-3.10827691 19.99462993 -5.07233077 22.69462893 -9 25 C-12.06641531 25.48587567 -14.95272626 25.63342207 -18 25 C-19.7421875 23.6953125 -19.7421875 23.6953125 -21 22 C-21.9881186 14.95965498 -19.82042319 9.89764781 -16 4 C-10.85820037 -1.14179963 -7.02475013 -1.56105558 0 0 Z " fill="#BBBBBB" transform="translate(361,150)"/>
<path d="M0 0 C5.61 0 11.22 0 17 0 C16.67 1.65 16.34 3.3 16 5 C12.37 5 8.74 5 5 5 C4.67 6.65 4.34 8.3 4 10 C6.31 10 8.62 10 11 10 C10.67 11.65 10.34 13.3 10 15 C7.03 15 4.06 15 1 15 C0.67 16.65 0.34 18.3 0 20 C3.3 20 6.6 20 10 20 C9.67 21.65 9.34 23.3 9 25 C3.39 25 -2.22 25 -8 25 C-6.43109015 16.21410486 -3.21090113 8.30646162 0 0 Z " fill="#BBBBBB" transform="translate(368,150)"/>
<path d="M0 0 C-1.77910928 6.75052102 -3.70438191 13.40620337 -6 20 C-5.01 20 -4.02 20 -3 20 C-3.33 21.65 -3.66 23.3 -4 25 C-8.95 25 -13.9 25 -19 25 C-18.67 23.35 -18.34 21.7 -18 20 C-16.35 20 -14.7 20 -13 20 C-12.87625 19.29875 -12.7525 18.5975 -12.625 17.875 C-11.96161655 14.82343613 -11.02788045 11.94659062 -10 9 C-11.32 9.33 -12.64 9.66 -14 10 C-13.92163689 7.25729109 -13.53068306 5.54241086 -11.5859375 3.5546875 C-7.70610592 0.56362791 -5.03611017 -0.61415978 0 0 Z " fill="#BBBBBB" transform="translate(407,150)"/>
<path d="M0 0 C2.31 0 4.62 0 7 0 C5.69233076 3.98077088 4.37806177 7.95933115 3.0625 11.9375 C2.68931641 13.07380859 2.31613281 14.21011719 1.93164062 15.38085938 C1.57392578 16.46044922 1.21621094 17.54003906 0.84765625 18.65234375 C0.51773682 19.65257568 0.18781738 20.65280762 -0.15209961 21.68334961 C-1 24 -1 24 -2 25 C-3.99958364 25.04080783 -6.00045254 25.04254356 -8 25 C-6.43889635 16.25781959 -3.21518143 8.24016625 0 0 Z " fill="#BBBBBB" transform="translate(313,150)"/>
<path d="M0 0 C3.3 0 6.6 0 10 0 C10.66 1.32 11.32 2.64 12 4 C10.8125 7.1875 10.8125 7.1875 9 10 C6.11788698 10.96070434 4.30149956 11.10581883 1.3125 11.0625 C-0.110625 11.041875 -1.53375 11.02125 -3 11 C-2.01 7.37 -1.02 3.74 0 0 Z M4 4 C3.67 4.66 3.34 5.32 3 6 C3.99 5.67 4.98 5.34 6 5 C5.34 4.67 4.68 4.34 4 4 Z " fill="#000000" transform="translate(572,149)"/>
</svg>
